<svg xmlns="http://www.w3.org/2000/svg" viewBox="0 0 493.73 365.3"><defs><style>.cls-1{fill:#9a9a9a;}</style></defs><g id="Calque_2" data-name="Calque 2"><g id="Calque_1-2" data-name="Calque 1"><path class="cls-1" d="M247.05,365.23c-57.44,0-114.89.25-172.34-.15C57.3,365,41.59,359,27.79,347.74c-14.58-11.86-22.63-27.19-26.5-45.09A56,56,0,0,1,.12,290.88c-.08-71.67-.24-143.35,0-215C.23,54.9,7.68,36.33,23,21.7,35.34,9.9,50,1.92,67.45,1.12c16.91-.78,33.85-1,50.77-1q149.12-.13,298.23,0c21.58,0,40.56,7.38,55.68,23,11.79,12.19,19.95,26.79,20.33,44,.9,39.51,1,79,1.13,118.56.15,34.59.23,69.18-.07,103.77-.19,21-7.78,39.46-22.87,54.18-12,11.68-26.43,19.91-43.45,20.45-31.89,1-63.81,1-95.72,1.18C303.34,365.36,275.19,365.23,247.05,365.23Zm-.45-23.89c24,0,48,.12,71.93,0,34.91-.21,69.83-.32,104.73-1.08,12.89-.27,23.57-7.07,32.09-16.22,9.68-10.4,14.31-23.29,14.32-37.61q0-103.78,0-207.55a56.67,56.67,0,0,0-1.58-13.16c-6.5-26.57-27.71-41.58-53.65-41.66q-112.16-.36-224.3-.07-59.85.12-119.7,1c-12.45.19-22.61,6.81-31,15.23A51.78,51.78,0,0,0,24,77.88c.18,72.44.37,144.89,1.1,217.33.14,13.37,7.55,24.38,17.5,33,11.82,10.18,26.14,13.33,41.61,13.27C138.36,341.21,192.48,341.35,246.6,341.34Z"/><path class="cls-1" d="M249.49,235.32a50.44,50.44,0,0,1-20.81,1.29c-14.34-2.18-25.32-7-32.72-18.77a31.35,31.35,0,0,1-3.91-11.9c-.78-5.3,3.54-11.23,8-12.23,7.26-1.62,13.6.93,15.26,7.1,1.75,6.48,6.16,9.21,11.93,10.93a29.58,29.58,0,0,0,25.14-3.37c4.74-3,4.76-6.66-.52-8.62a160.11,160.11,0,0,0-23-6.11c-10-2.1-19.88-4.83-27.7-11.58-10.73-9.27-12.74-26.94-2.23-38.8,8.06-9.09,18.32-13.1,30.2-14.66,13.8-1.82,26.56.6,37.83,8.38,8.08,5.58,13.62,13.32,12.91,24.08-.37,5.48-3.52,9.61-8.47,10.5-7,1.28-12.83-1-14.21-6.68-1.78-7.39-6.71-10.32-13.35-11.79-7.73-1.72-15.25-1.29-22.15,2.75-2,1.16-4.43,3.55-4.44,5.38,0,1.68,2.71,4.16,4.73,4.9,5.32,1.93,10.93,3.07,16.4,4.61,8.12,2.27,16.6,3.79,24.25,7.16,9.67,4.25,16.54,11.31,17.31,23,.91,13.86-5.06,23.87-16.94,29.6A78.05,78.05,0,0,1,249.49,235.32Z"/><path class="cls-1" d="M298.84,182.44c0-7.48,0-15,0-22.44,0-15.15,11.55-29,26.69-31.15,12.94-1.82,26-2.6,38.78,1,14.63,4.19,23.62,18.63,22.34,33.63-.46,5.39-6.18,10.11-12,10.07S363.12,169,362.9,163.36c-.35-8.59-6-11.61-12.86-11.62a141.15,141.15,0,0,0-19.73,1c-5.25.74-7.53,4.91-7.56,10-.08,13.29-.11,26.59,0,39.88.05,5.13,2.5,9.4,7.77,9.81a166.82,166.82,0,0,0,24.49,0c5.07-.36,7.28-4.46,7.79-9.32.76-7.22,5.9-12.08,12.57-11.45,6.26.59,11.5,4.79,11.39,12.72-.26,17.86-12.77,31.28-31.33,32.8a133.25,133.25,0,0,1-30.2-1c-14.95-2.21-25.65-14.48-26.32-29.89-.35-8-.06-16-.06-23.92Z"/><path class="cls-1" d="M131,151.66v19.07c6.61,0,13,0,19.47,0,7.82,0,12.41,4.61,12.32,12.19-.08,7.1-4.86,11.56-12.43,11.6-6,0-12,0-18,.08a6.31,6.31,0,0,0-1.24.38v18.6c9.87,0,19.64,0,29.41,0,8.16,0,13,4.08,13.26,11.21.2,6.86-5.47,12.55-13.06,12.63-13.82.15-27.64.13-41.47,0-7.71-.07-12.29-4.78-12.29-12.27q0-42.4,0-84.82c0-7.66,4.44-12.42,12.06-12.49,14-.14,28-.07,42,0a12.33,12.33,0,0,1,11.53,17.46c-1.9,4-4.74,6.48-9.58,6.41C152.51,151.55,142,151.66,131,151.66Z"/></g></g></svg>